<svg id="visual" viewBox="0 0 1920 224" width="1920" height="224" xmlns="http://www.w3.org/2000/svg" xmlns:xlink="http://www.w3.org/1999/xlink" version="1.1"><path d="M0 121L83 121L83 126L167 126L167 163L250 163L250 90L334 90L334 143L417 143L417 91L501 91L501 131L584 131L584 174L668 174L668 141L751 141L751 172L835 172L835 202L918 202L918 178L1002 178L1002 152L1085 152L1085 201L1169 201L1169 174L1252 174L1252 198L1336 198L1336 185L1419 185L1419 172L1503 172L1503 126L1586 126L1586 146L1670 146L1670 195L1753 195L1753 119L1837 119L1837 106L1920 106L1920 194L1920 225L1920 225L1837 225L1837 225L1753 225L1753 225L1670 225L1670 225L1586 225L1586 225L1503 225L1503 225L1419 225L1419 225L1336 225L1336 225L1252 225L1252 225L1169 225L1169 225L1085 225L1085 225L1002 225L1002 225L918 225L918 225L835 225L835 225L751 225L751 225L668 225L668 225L584 225L584 225L501 225L501 225L417 225L417 225L334 225L334 225L250 225L250 225L167 225L167 225L83 225L83 225L0 225Z" fill="#25283B"></path></svg>