<svg id="visual" viewBox="0 0 1920 224" width="1920" height="224" xmlns="http://www.w3.org/2000/svg" xmlns:xlink="http://www.w3.org/1999/xlink" version="1.1"><path d="M0 117L83 117L83 112L167 112L167 79L250 79L250 79L334 79L334 66L417 66L417 151L501 151L501 65L584 65L584 73L668 73L668 214L751 214L751 140L835 140L835 169L918 169L918 188L1002 188L1002 200L1085 200L1085 201L1169 201L1169 110L1252 110L1252 118L1336 118L1336 106L1419 106L1419 188L1503 188L1503 186L1586 186L1586 187L1670 187L1670 91L1753 91L1753 93L1837 93L1837 108L1920 108L1920 68L1920 225L1920 225L1837 225L1837 225L1753 225L1753 225L1670 225L1670 225L1586 225L1586 225L1503 225L1503 225L1419 225L1419 225L1336 225L1336 225L1252 225L1252 225L1169 225L1169 225L1085 225L1085 225L1002 225L1002 225L918 225L918 225L835 225L835 225L751 225L751 225L668 225L668 225L584 225L584 225L501 225L501 225L417 225L417 225L334 225L334 225L250 225L250 225L167 225L167 225L83 225L83 225L0 225Z" fill="#25283B"></path></svg>