<svg id="visual" viewBox="0 0 1920 224" width="1920" height="224" xmlns="http://www.w3.org/2000/svg" xmlns:xlink="http://www.w3.org/1999/xlink" version="1.1"><path d="M0 150L83 150L83 168L167 168L167 206L250 206L250 145L334 145L334 216L417 216L417 207L501 207L501 148L584 148L584 167L668 167L668 150L751 150L751 139L835 139L835 97L918 97L918 180L1002 180L1002 192L1085 192L1085 115L1169 115L1169 197L1252 197L1252 100L1336 100L1336 208L1419 208L1419 138L1503 138L1503 94L1586 94L1586 99L1670 99L1670 157L1753 157L1753 184L1837 184L1837 193L1920 193L1920 216L1920 225L1920 225L1837 225L1837 225L1753 225L1753 225L1670 225L1670 225L1586 225L1586 225L1503 225L1503 225L1419 225L1419 225L1336 225L1336 225L1252 225L1252 225L1169 225L1169 225L1085 225L1085 225L1002 225L1002 225L918 225L918 225L835 225L835 225L751 225L751 225L668 225L668 225L584 225L584 225L501 225L501 225L417 225L417 225L334 225L334 225L250 225L250 225L167 225L167 225L83 225L83 225L0 225Z" fill="#25283B"></path></svg>